<svg width="24" height="25" viewBox="0 0 24 25" fill="none" xmlns="http://www.w3.org/2000/svg">
<path d="M10.5024 15.4516C9.82851 15.4516 9.43379 15.0722 9.43379 14.3915V13.6038C6.60356 13.4092 3.78295 12.8258 0.856445 11.7073V10.1027C4.45681 11.6976 8.06681 12.2617 11.9945 12.2617C15.9318 12.2617 19.5418 11.6976 23.1422 10.1027V11.7073C20.2157 12.8258 17.395 13.4092 14.5648 13.6038V14.3915C14.5648 15.0722 14.1701 15.4516 13.4962 15.4516H10.5024ZM3.83108 21.9188H20.1675C22.1602 21.9188 23.1422 20.9463 23.1422 18.9526V9.49003C23.1422 7.49636 22.1602 6.52385 20.1675 6.52385H3.83108C1.84799 6.52385 0.856445 7.49636 0.856445 9.49003V18.9526C0.856445 20.9463 1.84799 21.9188 3.83108 21.9188ZM7.11378 7.36994H8.6059V5.64858C8.6059 4.90947 9.03911 4.49129 9.78999 4.49129H14.2086C14.9595 4.49129 15.3831 4.90947 15.3831 5.64858V7.35049H16.8752V5.75556C16.8752 3.92723 15.9221 3.07141 14.1798 3.07141H9.80921C8.16308 3.07141 7.11378 3.92723 7.11378 5.75556V7.36994Z" fill="#B3B3B3"/>
</svg>
