<svg width="134" height="35" viewBox="0 0 134 35" fill="none" xmlns="http://www.w3.org/2000/svg">
<path d="M9.27116 17.5749L17.7712 9.07487L26.2712 17.5749L17.7712 26.0749L9.27116 17.5749Z" fill="#CAFF33"/>
<path d="M31.9378 11.9082L26.2712 17.5749V9.07487H17.7712L23.4378 3.4082H31.9378V11.9082Z" fill="#CAFF33"/>
<path d="M31.9378 23.2415L26.2712 17.5749V26.0749H17.7712L23.4378 31.7415H31.9378V23.2415Z" fill="#CAFF33"/>
<path d="M3.60449 23.2415L9.27116 17.5749V26.0749H17.7712L12.1045 31.7415H3.60449L3.60449 23.2415Z" fill="#CAFF33"/>
<path d="M3.60449 11.9082L9.27116 17.5749V9.07487H17.7712L12.1045 3.4082H3.60449L3.60449 11.9082Z" fill="#CAFF33"/>
<path d="M51.2217 10.2083L45.9983 19.4315V25.5075H43.5364V19.4315L38.313 10.2083H41.1174L44.778 16.9836L48.4173 10.2083H51.2217Z" fill="white"/>
<path d="M55.6032 25.7916C54.0333 25.7916 52.6989 25.2379 51.6 24.1305C50.5011 23.0232 49.9516 21.6608 49.9516 20.0435C49.9516 18.4261 50.5011 17.0638 51.6 15.9564C52.6989 14.849 54.0333 14.2953 55.6032 14.2953C57.1873 14.2953 58.5217 14.849 59.6064 15.9564C60.7053 17.0638 61.2547 18.4261 61.2547 20.0435C61.2547 21.6608 60.7053 23.0232 59.6064 24.1305C58.5217 25.2379 57.1873 25.7916 55.6032 25.7916ZM53.2269 22.5132C53.8692 23.1689 54.6612 23.4967 55.6032 23.4967C56.5451 23.4967 57.3372 23.1689 57.9794 22.5132C58.6216 21.8575 58.9427 21.0343 58.9427 20.0435C58.9427 19.0527 58.6216 18.2294 57.9794 17.5737C57.3372 16.918 56.5451 16.5902 55.6032 16.5902C54.6612 16.5902 53.8692 16.918 53.2269 17.5737C52.5847 18.2294 52.2636 19.0527 52.2636 20.0435C52.2636 21.0343 52.5847 21.8575 53.2269 22.5132Z" fill="white"/>
<path d="M70.5596 14.5795H72.8716V25.5075H70.5596V24.1087C69.8603 25.2306 68.7542 25.7916 67.2414 25.7916C66.0141 25.7916 65.0222 25.3909 64.2658 24.5895C63.5094 23.7881 63.1312 22.688 63.1312 21.2892V14.5795H65.4432V21.0488C65.4432 21.8648 65.6573 22.4913 66.0854 22.9284C66.5136 23.3656 67.0987 23.5841 67.8409 23.5841C68.6543 23.5841 69.3108 23.3291 69.8103 22.8192C70.3098 22.2946 70.5596 21.5005 70.5596 20.4369V14.5795Z" fill="white"/>
<path d="M77.8871 16.4154C78.4723 15.0603 79.5712 14.3828 81.1839 14.3828V16.9399C80.299 16.8816 79.5284 17.1002 78.8719 17.5956C78.2154 18.0764 77.8871 18.8778 77.8871 19.9997V25.5075H75.5751V14.5795H77.8871V16.4154Z" fill="white"/>
<path d="M91.8618 17.5737C92.5183 17.9234 93.0321 18.4043 93.4032 19.0162C93.7742 19.6282 93.9597 20.3349 93.9597 21.1363C93.9597 22.3893 93.5245 23.4311 92.6539 24.2617C91.7833 25.0922 90.7201 25.5075 89.4642 25.5075H83.042V10.2083H88.9932C90.2206 10.2083 91.2553 10.6162 92.0973 11.4322C92.9536 12.2336 93.3817 13.239 93.3817 14.4483C93.3817 15.7742 92.8751 16.8161 91.8618 17.5737ZM88.9932 12.5687H85.5038V16.5902H88.9932C89.5355 16.5902 89.9922 16.4008 90.3633 16.022C90.7344 15.6285 90.9199 15.1477 90.9199 14.5795C90.9199 14.0112 90.7344 13.5377 90.3633 13.1588C89.9922 12.7654 89.5355 12.5687 88.9932 12.5687ZM89.4642 23.147C90.035 23.147 90.5131 22.943 90.8985 22.535C91.2981 22.1125 91.4979 21.6025 91.4979 21.0051C91.4979 20.4077 91.2981 19.905 90.8985 19.4971C90.5131 19.0745 90.035 18.8632 89.4642 18.8632H85.5038V23.147H89.4642Z" fill="white"/>
<path d="M104.54 14.5795H106.852V25.5075H104.54V23.9338C103.669 25.1723 102.421 25.7916 100.794 25.7916C99.3238 25.7916 98.0679 25.2379 97.026 24.1305C95.9842 23.0086 95.4633 21.6462 95.4633 20.0435C95.4633 18.4261 95.9842 17.0638 97.026 15.9564C98.0679 14.849 99.3238 14.2953 100.794 14.2953C102.421 14.2953 103.669 14.9073 104.54 16.1312V14.5795ZM98.7386 22.5569C99.3808 23.2126 100.187 23.5404 101.158 23.5404C102.128 23.5404 102.934 23.2126 103.577 22.5569C104.219 21.8866 104.54 21.0488 104.54 20.0435C104.54 19.0381 104.219 18.2076 103.577 17.5519C102.934 16.8816 102.128 16.5465 101.158 16.5465C100.187 16.5465 99.3808 16.8816 98.7386 17.5519C98.0964 18.2076 97.7753 19.0381 97.7753 20.0435C97.7753 21.0488 98.0964 21.8866 98.7386 22.5569Z" fill="white"/>
<path d="M115.177 14.2953C116.404 14.2953 117.396 14.696 118.153 15.4974C118.909 16.2988 119.287 17.3989 119.287 18.7977V25.5075H116.975V19.0381C116.975 18.2221 116.761 17.5956 116.333 17.1585C115.905 16.7213 115.32 16.5028 114.578 16.5028C113.764 16.5028 113.108 16.7651 112.608 17.2896C112.109 17.7996 111.859 18.5864 111.859 19.65V25.5075H109.547V14.5795H111.859V15.9782C112.558 14.8563 113.664 14.2953 115.177 14.2953Z" fill="white"/>
<path d="M133.23 25.5075H130.297L124.388 18.2294V25.5075H121.927V10.2083H124.388V17.071L130.083 10.2083H133.016L126.957 17.6612L133.23 25.5075Z" fill="white"/>
</svg>
