<svg width="31" height="27" viewBox="0 0 31 27" fill="none" xmlns="http://www.w3.org/2000/svg">
<path d="M15.3335 6.625C13.5731 6.625 12.146 8.05209 12.146 9.8125C12.146 11.5729 13.5731 13 15.3335 13C17.0939 13 18.521 11.5729 18.521 9.8125C18.521 8.05209 17.0939 6.625 15.3335 6.625Z" fill="#CAFF33"/>
<path fill-rule="evenodd" clip-rule="evenodd" d="M0.458496 2.90625C0.458496 1.43924 1.64774 0.25 3.11475 0.25H27.5522C29.0193 0.25 30.2085 1.43924 30.2085 2.90625V16.7188C30.2085 18.1858 29.0193 19.375 27.5522 19.375H3.11475C1.64774 19.375 0.458496 18.1858 0.458496 16.7188V2.90625ZM10.021 9.8125C10.021 6.87849 12.3995 4.5 15.3335 4.5C18.2675 4.5 20.646 6.87849 20.646 9.8125C20.646 12.7465 18.2675 15.125 15.3335 15.125C12.3995 15.125 10.021 12.7465 10.021 9.8125ZM24.896 8.75C24.3092 8.75 23.8335 9.2257 23.8335 9.8125V9.82312C23.8335 10.4099 24.3092 10.8856 24.896 10.8856H24.9066C25.4934 10.8856 25.9691 10.4099 25.9691 9.82312V9.8125C25.9691 9.2257 25.4934 8.75 24.9066 8.75H24.896ZM4.7085 9.8125C4.7085 9.2257 5.18419 8.75 5.771 8.75H5.78162C6.36842 8.75 6.84412 9.2257 6.84412 9.8125V9.82312C6.84412 10.4099 6.36842 10.8856 5.78162 10.8856H5.771C5.18419 10.8856 4.7085 10.4099 4.7085 9.82312V9.8125Z" fill="#CAFF33"/>
<path d="M1.521 21.5C0.934194 21.5 0.458496 21.9757 0.458496 22.5625C0.458496 23.1493 0.934194 23.625 1.521 23.625C9.17106 23.625 16.5805 24.6481 23.6207 26.5644C25.3073 27.0235 27.021 25.7738 27.021 23.9864V22.5625C27.021 21.9757 26.5453 21.5 25.9585 21.5H1.521Z" fill="#CAFF33"/>
</svg>
